#!OML:ASF E:\Steps\Project 1\Capture day 1\Session 2\Subject.ASF
:FULLY-SPECIFIED
:DEGREES
364
root 10.1929 11.3257 5.63282 -173.152 0.126135 -182.656
lowerback -3.55324 -1.28061 -4.48323
upperback 2.06866 -1.4891 -0.970739
thorax 4.2224 -0.875221 1.39913
lowerneck -2.29266 -2.5647 -1.26701
upperneck 11.2708 -3.25686 2.5145
head 4.17092 -1.38817 0.933311
rclavicle 8.34896e-015 1.15295e-014
rhumerus -40.8254 -24.3187 -76.0076
rradius 21.7062
rwrist 10.8565
rhand -13.7731 -55.8038
rfingers 7.12502
rthumb 12.3479 -85.4191
lclavicle 8.34896e-015 1.15295e-014
lhumerus -39.4516 -7.55808 84.0411
lradius 29.3669
lwrist 1.64193
lhand -34.5537 -18.6873
lfingers 7.12502
lthumb -7.71401 11.152
rfemur -69.0468 5.55285 17.9116
rtibia 82.0701
rfoot 137.478 -9.97547
rtoes -38.0949
lfemur -69.5617 -2.17419 -22.6522
ltibia 81.9541
lfoot -203.755 19.5762
ltoes -8.4856
365
root 10.1942 11.1376 5.47012 -173.486 -0.123018 -182.637
lowerback -3.01066 -1.35191 -4.37864
upperback 1.59382 -1.62621 -0.900142
thorax 3.42889 -0.916326 1.426
lowerneck -2.9292 -1.58218 -1.51689
upperneck 10.8396 -2.02032 3.22845
head 4.1303 -0.771958 1.26773
rclavicle -4.79568e-015 -5.76476e-015
rhumerus -38.8708 -22.4692 -77.975
rradius 22.2544
rwrist 9.44948
rhand -14.5535 -56.2561
rfingers 7.12502
rthumb 11.5953 -85.9153
lclavicle -4.79568e-015 -5.76476e-015
lhumerus -38.0751 -7.88483 84.303
lradius 29.0664
lwrist 1.67986
lhand -34.9929 -18.7115
lfingers 7.12502
lthumb -8.13795 11.1118
rfemur -68.944 5.36937 18.2151
rtibia 79.5049
rfoot 136.738 12.4897
rtoes -37.9483
lfemur -70.0144 -2.3923 -22.7011
ltibia 78.8081
lfoot -210.787 0.599618
ltoes -10.5086
366
root 10.2028 10.9592 5.32288 -173.799 -0.380753 -182.873
lowerback -2.45145 -1.48126 -4.7484
upperback 1.17411 -1.82766 -0.838789
thorax 2.70564 -1.00349 1.70629
lowerneck -3.38642 -0.838623 -1.56572
upperneck 10.4349 -1.06614 3.48498
head 4.05208 -0.306239 1.40232
rclavicle 1.00635e-014 2.14687e-014
rhumerus -36.905 -20.1507 -79.9504
rradius 23.0445
rwrist 8.05674
rhand -15.1751 -55.1588
rfingers 7.12502
rthumb 10.9958 -84.8508
lclavicle 1.00635e-014 2.14687e-014
lhumerus -36.5496 -8.38525 84.5824
lradius 28.8183
lwrist 2.14257
lhand -34.5306 -18.5892
lfingers 7.12502
lthumb -7.69169 11.2509
rfemur -68.986 5.10446 18.3603
rtibia 77.2905
rfoot 135.144 12.8855
rtoes -37.9487
lfemur -70.4605 -2.63931 -23.0052
ltibia 76.2897
lfoot -211.758 1.05844
ltoes -10.017
367
root 10.2094 10.7812 5.18573 -173.896 -0.227303 -183.146
lowerback -2.20214 -1.47395 -5.1504
upperback 0.84179 -1.83239 -0.849889
thorax 2.2355 -0.997362 1.93192
lowerneck -3.59073 -0.242822 -1.40171
upperneck 9.72241 -0.304814 3.47806
head 3.81447 0.0524251 1.39562
rclavicle -1.06101e-014 -2.10712e-014
rhumerus -34.7807 -17.9785 -81.8026
rradius 23.7638
rwrist 7.39713
rhand -15.6649 -53.5227
rfingers 7.12502
rthumb 10.5234 -83.2393
lclavicle -1.06101e-014 -2.10712e-014
lhumerus -34.6126 -9.10698 84.7269
lradius 28.463
lwrist 2.22579
lhand -34.5293 -18.5923
lfingers 7.12502
lthumb -7.69052 11.2479
rfemur -69.0146 5.20199 18.4112
rtibia 75.4943
rfoot 133.81 13.2422
rtoes -37.8666
lfemur -71.0445 -2.4395 -23.4653
ltibia 74.0373
lfoot -212.74 1.01365
ltoes -11.372
368
root 10.208 10.6023 5.06884 -173.466 0.576046 -183.196
lowerback -2.40104 -1.28603 -5.15797
upperback 0.395958 -1.50135 -0.884686
thorax 1.86563 -0.781138 1.9189
lowerneck -3.43845 -0.203158 -1.3717
upperneck 9.71274 -0.249161 3.48572
head 3.77946 0.082461 1.39411
rclavicle 4.07509e-015 5.56597e-015
rhumerus -32.5319 -15.9854 -83.5169
rradius 24.789
rwrist 6.2922
rhand -14.6305 -54.679
rfingers 7.12502
rthumb 11.5211 -84.3424
lclavicle 4.07509e-015 5.56597e-015
lhumerus -32.6708 -10.1251 84.8147
lradius 28.3705
lwrist 2.32078
lhand -34.9976 -18.9003
lfingers 7.12502
lthumb -8.14246 10.9228
rfemur -70.2435 5.78587 18.5347
rtibia 72.9712
rfoot 132.496 13.2711
rtoes -37.8344
lfemur -72.3457 -1.52029 -23.8774
ltibia 71.8063
lfoot -213.879 0.655045
ltoes -12.7434
369
root 10.2062 10.4471 4.95143 -173.437 0.539399 -183.293
lowerback -2.21589 -1.28881 -5.0527
upperback 0.162713 -1.52369 -0.973474
thorax 1.51763 -0.777805 1.77551
lowerneck -3.32017 -0.204091 -1.37095
upperneck 9.72163 -0.248315 3.51368
head 3.75968 0.0855487 1.40276
rclavicle -3.08116e-015 9.74045e-015
rhumerus -30.2588 -14.3881 -84.8899
rradius 25.5278
rwrist 5.77748
rhand -13.8064 -54.4128
rfingers 7.12502
rthumb 12.3158 -84.0301
lclavicle -3.08116e-015 9.74045e-015
lhumerus -30.5948 -11.3779 84.7359
lradius 28.4585
lwrist 2.555
lhand -34.5958 -19.2444
lfingers 7.12502
lthumb -7.75469 10.5934
rfemur -71.1105 5.56957 18.7998
rtibia 70.3814
rfoot 131.257 13.6176
rtoes -37.9543
lfemur -72.8691 -1.45001 -24.2096
ltibia 69.9843
lfoot -214.921 1.05282
ltoes -11.0936
370
root 10.2072 10.301 4.83285 -173.376 0.389326 -183.375
lowerback -2.12959 -1.31299 -4.92252
upperback 0.0192049 -1.56422 -1.08283
thorax 1.31765 -0.788204 1.59312
lowerneck -3.25862 -0.230931 -1.34212
upperneck 9.74292 -0.285647 3.54829
head 3.75637 0.0713209 1.40758
rclavicle 8.79622e-015 -6.95746e-015
rhumerus -27.929 -13.0281 -85.9866
rradius 26.1022
rwrist 5.70595
rhand -11.0999 -58.0571
rfingers 7.12502
rthumb 14.9243 -87.4994
lclavicle 8.79622e-015 -6.95746e-015
lhumerus -28.262 -12.8037 84.5026
lradius 28.445
lwrist 2.23344
lhand -34.0028 -19.5778
lfingers 7.12502
lthumb -7.18227 10.2804
rfemur -71.8348 5.33366 19.0789
rtibia 68.2481
rfoot 130.385 13.9216
rtoes -37.4143
lfemur -72.9358 -1.62082 -24.4266
ltibia 68.718
lfoot -215.871 1.63528
ltoes -8.95221
371
root 10.2095 10.1623 4.72235 -173.264 0.198103 -183.399
lowerback -2.08218 -1.27232 -4.76776
upperback -0.118117 -1.62375 -1.15893
thorax 1.14337 -0.855052 1.42911
lowerneck -3.00824 -0.233368 -1.33498
upperneck 9.69952 -0.285917 3.5997
head 3.69269 0.0745955 1.42129
rclavicle -1.25483e-014 -4.45278e-014
rhumerus -25.6449 -11.6224 -86.9042
rradius 26.7256
rwrist 5.86177
rhand -11.9283 -55.3857
rfingers 7.12502
rthumb 14.1261 -84.8855
lclavicle -1.25483e-014 -4.45278e-014
lhumerus -25.7992 -14.2107 84.1773
lradius 28.2029
lwrist 1.36076
lhand -33.8505 -19.8544
lfingers 7.12502
lthumb -7.03528 10.0087
rfemur -72.4974 5.05359 19.4569
rtibia 66.337
rfoot 129.823 14.1461
rtoes -36.406
lfemur -73.5028 -1.732 -24.6304
ltibia 66.9785
lfoot -216.853 2.17194
ltoes -7.10204
372
root 10.2144 10.0326 4.62837 -173.183 -0.0767859 -183.476
lowerback -1.91123 -1.35744 -4.7346
upperback -0.198243 -1.7537 -1.21102
thorax 0.970197 -0.916203 1.35853
lowerneck -2.74151 -0.203043 -1.35936
upperneck 9.61921 -0.24034 3.6375
head 3.61188 0.0972571 1.43716
rclavicle 6.21202e-016 -7.95139e-015
rhumerus -23.3025 -9.66725 -87.8679
rradius 27.7266
rwrist 5.35145
rhand -11.005 -56.3643
rfingers 7.12502
rthumb 15.0157 -85.7998
lclavicle 6.21202e-016 -7.95139e-015
lhumerus -23.0984 -15.3891 83.6836
lradius 27.694
lwrist 0.0611971
lhand -33.8906 -20.175
lfingers 7.12502
lthumb -7.07394 9.68676
rfemur -73.3498 4.65732 19.8941
rtibia 64.0396
rfoot 129.322 14.6094
rtoes -36.3756
lfemur -73.6101 -2.06402 -24.7719
ltibia 65.7979
lfoot -217.678 2.72832
ltoes -5.02671
373
root 10.2181 9.91116 4.5478 -172.994 -0.301339 -183.563
lowerback -1.77633 -1.43489 -4.73155
upperback -0.223675 -1.86756 -1.24186
thorax 0.873916 -0.97137 1.3258
lowerneck -2.66916 -0.180726 -1.385
upperneck 9.56359 -0.209679 3.6524
head 3.57779 0.110716 1.44658
rclavicle 2.35808e-014 1.96797e-014
rhumerus -20.7956 -7.9034 -88.6436
rradius 28.7088
rwrist 4.77719
rhand -10.0744 -57.904
rfingers 7.12502
rthumb 15.912 -87.2703
lclavicle 2.35808e-014 1.96797e-014
lhumerus -20.3447 -16.4145 83.0531
lradius 27.3228
lwrist -1.51569
lhand -34.056 -20.6599
lfingers 7.12502
lthumb -7.23358 9.19646
rfemur -73.8596 4.37183 20.1909
rtibia 62.7337
rfoot 129.441 15.0451
rtoes -36.8311
lfemur -74.4425 -2.20438 -24.9891
ltibia 64.0525
lfoot -218.338 3.3085
ltoes -3.20913
374
root 10.2154 9.79692 4.47766 -172.736 -0.48319 -183.525
lowerback -1.66258 -1.46983 -4.58949
upperback -0.223641 -1.92149 -1.22182
thorax 0.809472 -0.99562 1.2689
lowerneck -2.66074 -0.143562 -1.46004
upperneck 9.5192 -0.157997 3.66528
head 3.55968 0.132461 1.4655
rclavicle -2.31087e-015 1.05356e-014
rhumerus -18.2778 -6.67731 -89.1061
rradius 29.5117
rwrist 4.83554
rhand -9.93795 -57.5773
rfingers 7.12502
rthumb 16.0434 -86.9331
lclavicle -2.31087e-015 1.05356e-014
lhumerus -17.6985 -16.9935 82.3774
lradius 27.338
lwrist -3.10377
lhand -33.8646 -21.0774
lfingers 7.12502
lthumb -7.04885 8.78523
rfemur -74.4194 4.11898 20.4276
rtibia 61.4916
rfoot 129.419 14.9064
rtoes -36.6513
lfemur -75.198 -2.43815 -25.0136
ltibia 62.6341
lfoot -218.604 4.23087
ltoes 0.465154
